PathFileType	4	(x/y/z)	S06_P20_T63
DataRate	CameraRate	NumFrames	NumMarkers	Units	OrigDataRate	OrigDataStartFrame	OrigNumFrames
240	240	4	51	mm	240	178	355
Frame#	Time	Sternum			R.Acromium			L.Acromium			Top.Head			R.ASIS			L.ASIS			R.PSIS			L.PSIS			R.Great.Tro			L.Great.Tro			R.Iliac.Crest			L.Iliac.Crest			V.Sacral			R.Thigh.Upper.Post			R.Thigh.Lower.Ant			R.Thigh.Lower.Post			R.Thigh.Upper.Ant			R.Knee.Lat			R.Knee.Med			R.Shank.Upper.Post			R.Shank.Lower.Ant			R.Shank.Lower.Post			R.Shank.Upper.Ant			R.Ankle.Lat			R.Ankle.Med			R.Heel.Upper			R.Heel.Med			R.Heel.Lat			R.Toe.Lat			R.Toe.Med			R.Toe.Tip			L.Thigh.Upper.Post			L.Thigh.Lower.Ant			L.Thigh.Lower.Post			L.Thigh.Upper.Ant			L.Knee.Lat			L.Knee.Med			L.Shank.Upper.Post			L.Shank.Lower.Ant			L.Shank.Lower.Post			L.Shank.Upper.Ant			L.Ankle.Lat			L.Ankle.Med			L.Heel.Upper			L.Heel.Med			L.Heel.Lat			L.Toe.Lat			L.Toe.Med			L.Toe.Tip			Cervical.Spine			Back			
		X1	Y1	Z1	X2	Y2	Z2	X3	Y3	Z3	X4	Y4	Z4	X5	Y5	Z5	X6	Y6	Z6	X7	Y7	Z7	X8	Y8	Z8	X9	Y9	Z9	X10	Y10	Z10	X11	Y11	Z11	X12	Y12	Z12	X13	Y13	Z13	X14	Y14	Z14	X15	Y15	Z15	X16	Y16	Z16	X17	Y17	Z17	X18	Y18	Z18	X19	Y19	Z19	X20	Y20	Z20	X21	Y21	Z21	X22	Y22	Z22	X23	Y23	Z23	X24	Y24	Z24	X25	Y25	Z25	X26	Y26	Z26	X27	Y27	Z27	X28	Y28	Z28	X29	Y29	Z29	X30	Y30	Z30	X31	Y31	Z31	X32	Y32	Z32	X33	Y33	Z33	X34	Y34	Z34	X35	Y35	Z35	X36	Y36	Z36	X37	Y37	Z37	X38	Y38	Z38	X39	Y39	Z39	X40	Y40	Z40	X41	Y41	Z41	X42	Y42	Z42	X43	Y43	Z43	X44	Y44	Z44	X45	Y45	Z45	X46	Y46	Z46	X47	Y47	Z47	X48	Y48	Z48	X49	Y49	Z49	X50	Y50	Z50	X51	Y51	Z51	

178	0.7375	-395.7	1288.8	316.73	-508.74	1495.6	487.69	-527.48	1496.8	134.61	-508.15	1814.6	311.51	-451.41	1059.7	449.81	-438.53	1050.2	197.52	NaN	NaN	NaN	-643.85	1076.9	268.57	-509.81	990.69	496.28	-521.64	978.99	140.06	-535.69	1135.3	475.63	-509.76	1122.6	156.82	-659.44	1043.2	312.92	-479.93	735.45	479.63	-416.28	661.91	443.45	-483.94	649	456.15	-410.49	750.69	464.26	-451.94	540.68	437.47	-444.38	551.17	310.15	-517.42	317.67	423.61	-464.26	248.56	399.51	-530.92	242.72	405.17	-453.08	322.2	416.71	-511.5	108.16	376.22	-496.35	117.2	286.82	-580.73	72.93	322.88	-572.33	42.136	291.51	-571.31	40.547	356.87	-393.32	36.822	397.53	-369.27	53.356	277.9	-302.76	65.793	323.67	-353.39	759.68	151.75	-282.28	702.28	213.93	-333.02	670.9	161.76	-310.57	792.89	200.08	-330.85	579.18	174.8	-308.44	578.37	299.15	-490.23	428.35	167.34	-476.18	340.57	166.9	-539.05	373.64	177.34	-432.17	396.25	161.93	-588.21	239.09	166.61	-588.04	230.59	258.6	-678.98	241.76	205.37	-692.82	212.76	232.14	-682.89	221.88	171.82	-530.06	127.5	140.35	-526.98	106.8	257.08	-450.94	88.613	211.04	-576.09	1550.8	314.34	-637.38	1281.1	315.07
179	0.74167	-390.51	1289.4	316.85	-503.46	1496.2	487.71	-522.25	1497.3	134.67	-502.63	1815.1	311.44	-446.35	1060	449.91	-433.33	1050.8	197.68	NaN	NaN	NaN	-638.64	1077.4	268.49	-504.81	991.01	496.31	-516.18	979.67	140.09	-530.42	1135.8	475.67	-504.51	1123.2	156.92	-654.25	1043.7	312.86	-476.52	735.58	479.46	-413.41	661.67	443.12	-481.1	649.15	456.03	-406.96	750.41	463.89	-449.98	540.55	437.17	-442.54	551.04	309.81	-516.3	317.71	423.4	-463.41	248.44	399.19	-530.07	242.79	404.99	-451.95	322.03	416.41	-511.24	108.29	375.96	-496.15	117.13	286.57	-580.61	73.053	322.75	-572.38	42.176	291.39	-571.25	40.71	356.8	-393.27	36.741	397.55	-369.14	52.934	277.75	-302.67	65.223	323.56	-346.23	761.63	152.28	-274.81	704.79	214.64	-325.23	672.98	162.41	-303.74	795.18	200.64	-322.4	581.2	175.48	-300.13	580.7	299.68	-478.92	427.03	168.09	-463.02	339.58	167.15	-526.46	371.25	178.02	-420.23	396.18	162.28	-572.66	235.47	166.9	-572.08	226.83	258.85	-663.4	235.73	205.77	-676.46	206.34	232.5	-666.86	215.78	172.22	-511.68	125.43	140.38	-507.89	104.74	257.09	-431.49	88.547	210.92	-570.81	1551.2	314.39	-632.11	1281.5	315.16
180	0.74583	-385.31	1289.9	316.97	-498.18	1496.8	487.73	-517.01	1497.7	134.73	-497.12	1815.4	311.36	-441.27	1060.3	450	-428.13	1051.4	197.83	NaN	NaN	NaN	-633.43	1077.8	268.41	-499.79	991.3	496.34	-510.73	980.31	140.1	-525.13	1136.3	475.71	-499.26	1123.8	157.01	-649.05	1044.1	312.83	-473.11	735.68	479.27	-410.55	661.43	442.75	-478.25	649.28	455.89	-403.43	750.11	463.47	-448.03	540.4	436.83	-440.75	550.91	309.44	-515.2	317.74	423.16	-462.58	248.32	398.84	-529.23	242.86	404.77	-450.84	321.86	416.08	-510.97	108.43	375.69	-495.95	117.05	286.31	-580.49	73.168	322.61	-572.4	42.209	291.27	-571.19	40.874	356.73	-393.22	36.667	397.55	-369.01	52.501	277.58	-302.6	64.655	323.44	-339.2	763.48	152.8	-267.47	707.15	215.29	-317.62	674.95	163.05	-296.98	797.34	201.16	-314.15	583.1	176.14	-292.01	582.92	300.17	-467.63	425.52	168.82	-449.84	338.45	167.44	-513.83	368.68	178.71	-408.3	395.98	162.65	-556.96	231.7	167.26	-555.92	222.96	259.17	-647.59	229.52	206.25	-659.83	199.76	232.96	-650.6	209.5	172.71	-493.16	123.29	140.49	-488.58	102.67	257.17	-411.91	88.495	210.86	-565.51	1551.6	314.44	-626.83	1281.9	315.25
181	0.75	-380.1	1290.3	317.08	-492.88	1497.3	487.76	-511.77	1498.1	134.8	-491.61	1815.8	311.26	-436.16	1060.5	450.07	-422.92	1051.9	197.95	NaN	NaN	NaN	-628.2	1078.2	268.35	-494.75	991.55	496.38	-505.31	980.9	140.09	-519.8	1136.7	475.76	-493.99	1124.3	157.11	-643.83	1044.5	312.8	-469.69	735.75	479.06	-407.7	661.18	442.35	-475.41	649.39	455.73	-399.9	749.8	463.03	-446.09	540.24	436.47	-439.01	550.78	309.04	-514.1	317.76	422.9	-461.76	248.19	398.46	-528.38	242.92	404.54	-449.74	321.69	415.73	-510.71	108.58	375.4	-495.77	116.96	286.02	-580.36	73.273	322.47	-572.41	42.235	291.16	-571.12	41.037	356.65	-393.16	36.601	397.54	-368.9	52.06	277.41	-302.52	64.091	323.32	-332.29	765.21	153.29	-260.27	709.36	215.9	-310.21	676.8	163.67	-290.3	799.35	201.64	-306.11	584.88	176.76	-284.08	585.03	300.61	-456.36	423.82	169.53	-436.62	337.2	167.76	-501.15	365.93	179.41	-396.41	395.65	163.04	-541.11	227.81	167.67	-539.57	219.01	259.56	-631.55	223.17	206.83	-642.93	193.07	233.53	-634.1	203.06	173.3	-474.51	121.09	140.68	-469.07	100.63	257.33	-392.21	88.476	210.85	-560.2	1552	314.49	-621.54	1282.3	315.36
